<?xml version="1.0" encoding="UTF-8"?>
<svg version="1.1" xmlns="http://www.w3.org/2000/svg" width="1266" height="391">
<path d="M0 0 C17.16 0 34.32 0 52 0 C61.57735951 28.36371854 70.65331795 56.86696427 79.62158203 85.42822266 C82.05459566 93.17616834 84.49351168 100.92224709 86.93359375 108.66796875 C90.95823268 121.44452525 94.98014329 134.22193811 99 147 C100.60654761 144.59017858 101.66819794 142.61741154 102.76147461 139.9831543 C103.10116272 139.16904083 103.44085083 138.35492737 103.79083252 137.5161438 C104.15763123 136.62780853 104.52442993 135.73947327 104.90234375 134.82421875 C105.29162048 133.88851044 105.68089722 132.95280212 106.08197021 131.98873901 C107.37028042 128.88961715 108.65392802 125.78858698 109.9375 122.6875 C110.84001516 120.51349272 111.74276915 118.33958457 112.64575195 116.16577148 C115.43557609 109.44594546 118.21875524 102.72338079 121 96 C121.42418213 94.97467163 121.84836426 93.94934326 122.28540039 92.89294434 C126.64852191 82.34480904 131.00512149 71.79398604 135.359375 61.2421875 C139.67383845 50.78722685 143.99295017 40.33419984 148.32070923 29.88473511 C149.05468293 28.11206677 149.78823646 26.3392244 150.52133179 24.56619263 C151.53263172 22.12048559 152.54542428 19.67540179 153.55859375 17.23046875 C153.99483063 16.17419785 153.99483063 16.17419785 154.43988037 15.09658813 C156.54543796 10.02235668 158.76682099 5.02465278 161 0 C178.16 0 195.32 0 213 0 C209.62919037 11.2360321 209.62919037 11.2360321 207.62036133 15.97558594 C207.16811691 17.0531012 206.7158725 18.13061646 206.24992371 19.24078369 C205.7613942 20.39366882 205.27286469 21.54655396 204.76953125 22.734375 C203.67935425 25.33372504 202.59434164 27.93521462 201.51025391 30.53710938 C201.22562507 31.21958363 200.94099623 31.90205788 200.64774227 32.60521317 C197.2751534 40.71098035 194.01628558 48.86191725 190.76171875 57.015625 C190.44473274 57.80932243 190.12774673 58.60301987 189.80115509 59.42076874 C188.12973129 63.60626543 186.4596335 67.79228928 184.79034424 71.9786377 C182.62691948 77.4033724 180.45913265 82.82635799 178.29052734 88.24902344 C177.91673698 89.18375614 177.54294662 90.11848885 177.15782928 91.08154678 C176.39096474 92.99922952 175.62409354 94.9169096 174.85721588 96.8345871 C169.50222088 110.22615729 164.15096888 123.61920968 158.80810547 137.015625 C154.86917409 146.8916359 150.92363053 156.7649807 146.97143841 166.6356926 C144.85400041 171.9247845 142.73959027 177.21503821 140.63290405 182.50842285 C132.0739269 204.00906886 123.55734371 225.38391892 113 246 C112.57187515 246.84385757 112.14375031 247.68771515 111.70265198 248.55714417 C96.11940382 279.24165333 74.32812033 308.55967176 40.75 320.375 C30.23363778 323.78485078 19.92404187 324.29244937 8.9375 324.1875 C7.62072266 324.18685547 6.30394531 324.18621094 4.94726562 324.18554688 C-4.71844968 324.14077516 -4.71844968 324.14077516 -7 323 C-7.12832105 313.38637684 -6.81480819 303.8740064 -6.20043945 294.28417969 C-6.06131251 292.10641203 -5.92961279 289.92828305 -5.79882812 287.75 C-5.38943006 281.13062557 -4.86885758 274.57531051 -4 268 C-2.80246094 267.97421875 -1.60492187 267.9484375 -0.37109375 267.921875 C17.48388782 267.37260438 33.38072598 264.41709849 46.875 251.6875 C57.07497623 240.74973163 61.29941253 228.43771594 61.5 213.625 C61.51853027 212.8002417 61.53706055 211.9754834 61.55615234 211.12573242 C61.39975257 195.27262186 54.29360787 179.13223743 49.5793457 164.2020874 C47.3511695 157.144476 45.13686796 150.08251278 42.92578125 143.01953125 C42.69096165 142.26955368 42.45614204 141.51957611 42.2142067 140.74687195 C38.2705754 128.14298544 34.3913399 115.51999362 30.54296875 102.88671875 C30.2709646 101.99381071 29.99896046 101.10090267 29.71871376 100.18093681 C27.0361712 91.37204378 24.35925236 82.56145082 21.68746662 73.74928951 C20.68543871 70.44523563 19.68231612 67.1415152 18.67862892 63.83796501 C18.18718508 62.22031018 17.69602066 60.60257042 17.20514488 58.98474312 C14.39045587 49.71425298 11.52611261 40.46172134 8.58203125 31.23144531 C8.30153427 30.35066378 8.02103729 29.46988224 7.73204041 28.56241035 C6.38164365 24.32512896 5.02450236 20.09020464 3.65600586 15.85873413 C3.1715393 14.34549399 2.68723658 12.83220139 2.203125 11.31884766 C1.97877274 10.63342014 1.75442047 9.94799263 1.52326965 9.24179459 C0.47409772 5.94371057 0 3.51116989 0 0 Z " fill="#F1C54B" transform="translate(859,65)"/>
<path d="M0 0 C17.79591635 13.55467911 26.97252579 33.13332324 31.0222168 54.80615234 C33.71704304 74.81098859 33.00989983 101.26828628 23.7722168 119.74365234 C-21.4377832 119.74365234 -66.6477832 119.74365234 -113.2277832 119.74365234 C-111.33995751 132.95843221 -109.36309284 144.96429626 -98.24731445 153.42333984 C-83.6205707 162.98589185 -66.22727331 163.62083804 -49.4152832 160.55615234 C-43.10950888 159.13359154 -37.16213503 157.08130548 -31.15356445 154.73193359 C-28.2277832 153.74365234 -28.2277832 153.74365234 -24.2277832 153.74365234 C-22.52368164 155.00952148 -22.52368164 155.00952148 -20.8371582 156.77880859 C-20.21421875 157.41979492 -19.5912793 158.06078125 -18.94946289 158.72119141 C-17.97348145 159.75324707 -17.97348145 159.75324707 -16.9777832 160.80615234 C-15.62545805 162.19986861 -14.27131364 163.59182216 -12.9152832 164.98193359 C-12.27204102 165.64402832 -11.62879883 166.30612305 -10.96606445 166.98828125 C-8.50403391 169.47451715 -5.88487469 171.72904646 -3.2121582 173.98193359 C1.32483537 178.00985505 5.51912962 182.42020159 9.7722168 186.74365234 C4.34512711 192.59759178 -2.24618295 196.03412048 -9.2277832 199.74365234 C-10.52522461 200.44361328 -10.52522461 200.44361328 -11.84887695 201.15771484 C-24.74228626 207.55284586 -39.97361361 211.25035839 -54.2277832 212.74365234 C-55.12368164 212.85322266 -56.01958008 212.96279297 -56.94262695 213.07568359 C-84.3998825 215.96389421 -111.78370336 213.27690763 -134.3527832 195.99365234 C-152.68373168 180.65018439 -163.49316878 158.72900642 -165.9777832 135.05615234 C-166.08432232 133.28656353 -166.1677672 131.5154292 -166.2277832 129.74365234 C-166.26774414 128.85806641 -166.30770508 127.97248047 -166.34887695 127.06005859 C-167.22220778 88.37664012 -158.45797704 48.26585583 -132.2277832 18.74365234 C-131.02702148 17.39207031 -131.02702148 17.39207031 -129.80200195 16.01318359 C-97.14505757 -18.46100483 -39.38507154 -29.01379469 0 0 Z M-92.6027832 45.11865234 C-99.45555588 53.40829671 -102.2277832 61.94529716 -102.2277832 72.74365234 C-76.8177832 72.74365234 -51.4077832 72.74365234 -25.2277832 72.74365234 C-22.70269712 62.64330801 -21.28668362 54.32807661 -26.6184082 44.99755859 C-31.79770963 37.74402237 -38.95826241 33.30840711 -47.55981445 31.16162109 C-64.14030231 28.56409225 -80.94068919 32.64042652 -92.6027832 45.11865234 Z " fill="#42AAB0" transform="translate(523.227783203125,71.25634765625)"/>
<path d="M0 0 C15.84 0 31.68 0 48 0 C46.66756269 9.32706117 45.26522623 18.60179548 43.65234375 27.87890625 C43.43558487 29.13460922 43.21882599 30.39031219 42.99549866 31.68406677 C42.54180866 34.31013613 42.08739399 36.9360655 41.6315918 39.56176758 C41.04919568 42.91683323 40.46918931 46.27230639 39.89002132 49.62793064 C39.3324756 52.85756906 38.77367558 56.08699015 38.21484375 59.31640625 C38.00754135 60.51536026 37.80023895 61.71431427 37.58665466 62.94960022 C37.39297806 64.06523849 37.19930145 65.18087677 36.99975586 66.33032227 C36.83035995 67.30735611 36.66096405 68.28438995 36.48643494 69.29103088 C36.02367841 71.86813428 35.52311961 74.43453737 35 77 C36.28970703 76.41992188 36.28970703 76.41992188 37.60546875 75.828125 C66.69184 63.01362774 97.95664263 58.930945 128.21484375 70.45996094 C145.26360248 77.41538465 156.26799499 89.43312424 163.3203125 106.125 C171.87340749 130.96065361 166.99472007 158.23161623 163.29681396 183.47354364 C162.7912677 186.93839754 162.2967495 190.40482783 161.80078125 193.87106323 C160.97008964 199.66581576 160.13218264 205.45948472 159.2890625 211.25244141 C158.20721945 218.68584934 157.13727957 226.12092059 156.07104492 233.5565815 C155.14990297 239.98005011 154.22388212 246.4028138 153.29681396 252.82542944 C153.00037302 254.88022686 152.70451165 256.93510719 152.40869141 258.98999405 C151.85940358 262.80261277 151.30504848 266.61448499 150.75 270.42626953 C150.50527954 272.12789246 150.50527954 272.12789246 150.25561523 273.8638916 C150.10423096 274.89785065 149.95284668 275.93180969 149.796875 276.99710083 C149.66635742 277.89622759 149.53583984 278.79535435 149.40136719 279.72172737 C149 282 149 282 148 285 C131.83 285 115.66 285 99 285 C99.59695329 276.64265389 100.19996752 268.58699685 101.47460938 260.35791016 C101.61945267 259.39335907 101.76429596 258.42880798 101.91352844 257.43502808 C102.38520577 254.30225025 102.86443431 251.17067987 103.34375 248.0390625 C103.67673179 245.83628813 104.00920156 243.6334363 104.34118652 241.43051147 C105.21067661 235.66921989 106.08645921 229.90890338 106.96380615 224.14880371 C108.02951146 217.14511216 109.08849187 210.14040132 110.14765167 203.13571739 C110.971381 197.68809578 111.79635325 192.24067406 112.62536621 186.79385376 C112.92537653 184.81781039 113.22538478 182.84176671 113.52539062 180.86572266 C113.72803276 179.53924713 113.72803276 179.53924713 113.93476868 178.18597412 C116.52851953 161.07452833 118.70762874 142.70094358 108.8125 127.375 C102.59836135 119.52486731 94.81412863 115.5598615 85 114 C70.03827318 112.67170859 56.80339592 116.66846894 44.875 125.6875 C37.43891133 131.95008092 32.24022984 139.03407041 27.8125 147.625 C27.5036084 148.21474609 27.1947168 148.80449219 26.87646484 149.41210938 C19.73780407 163.98513754 17.37946506 179.89260206 14.86328125 195.7421875 C14.49513998 198.00482246 14.12591279 200.26728097 13.75566101 202.52957153 C12.79121631 208.43898752 11.84030268 214.35049728 10.8927002 220.26263428 C9.73873487 227.44730057 8.5696514 234.62951913 7.40178967 241.81193733 C6.49356539 247.39841617 5.58784777 252.98525688 4.69026184 258.57345581 C4.52426987 259.60281754 4.35827789 260.63217926 4.18725586 261.69273376 C3.88071768 263.59392079 3.57554834 265.49532933 3.2721405 267.39701843 C2.31719002 273.3051976 1.1755572 279.12221402 0 285 C-16.5 285 -33 285 -50 285 C-45.40032708 257.1052539 -40.57888647 229.25442492 -35.6810596 201.410712 C-34.61873394 195.36985481 -33.5580394 189.32871116 -32.49708557 183.28761292 C-30.71897023 173.16444786 -28.93959306 163.04150524 -27.15942383 152.91870117 C-25.11503391 141.29333588 -23.07266182 129.66761745 -21.03136104 118.04170936 C-19.0473521 106.74237033 -17.06191849 95.44328206 -15.07585335 84.14430428 C-14.23941533 79.38556804 -13.40345261 74.6267487 -12.5678997 69.86785698 C-8.47505682 46.55984805 -4.36846883 23.25819855 0 0 Z " fill="#46B0B0" transform="translate(182,0)"/>
<path d="M0 0 C3.05059721 2.67703519 5.91810096 5.50268992 8.76953125 8.390625 C9.58292969 9.2053125 10.39632812 10.02 11.234375 10.859375 C31.9142052 32.63505945 38.26349105 62.66992139 37.83664322 91.8320179 C37.59310132 101.11691947 36.8814236 110.3898363 36.2734375 119.65625 C36.11855099 122.06758477 35.96401095 124.47894181 35.80979919 126.89031982 C35.48768494 131.90968006 35.16205543 136.92879556 34.83374023 141.94775391 C34.41295471 148.38331524 34.00010953 154.81935668 33.58972263 161.25558853 C33.27252714 166.2193405 32.95168894 171.18285164 32.62968254 176.14629364 C32.47597254 178.52092731 32.32328318 180.89562728 32.17163277 183.27039337 C31.95993353 186.57536776 31.74345512 189.87999446 31.52563477 193.18457031 C31.46377487 194.16428299 31.40191498 195.14399567 31.33818054 196.15339661 C31.24776993 197.50267494 31.24776993 197.50267494 31.15553284 198.87921143 C31.07948492 200.04821424 31.07948492 200.04821424 31.00190067 201.24083328 C30.76953125 203.390625 30.76953125 203.390625 29.76953125 207.390625 C16.23953125 207.390625 2.70953125 207.390625 -11.23046875 207.390625 C-11.23046875 192.765625 -11.23046875 192.765625 -10.73046875 187.578125 C-10.63765625 186.58167969 -10.54484375 185.58523438 -10.44921875 184.55859375 C-10.37703125 183.84316406 -10.30484375 183.12773437 -10.23046875 182.390625 C-10.79854248 182.78330566 -11.36661621 183.17598633 -11.9519043 183.58056641 C-37.01262063 200.82136651 -61.18248534 211.60878173 -92.31640625 206.70703125 C-116.84927468 202.00985296 -137.86165664 187.74644216 -152.23046875 167.390625 C-161.18017163 153.86813621 -167.29194718 138.55336328 -169.23046875 122.390625 C-169.34003906 121.48054687 -169.44960938 120.57046875 -169.5625 119.6328125 C-173.03157263 86.42222384 -163.13416799 51.50082182 -142.23046875 25.390625 C-139.32385929 21.96388543 -136.31299348 18.65930575 -133.23046875 15.390625 C-132.61816406 14.71386719 -132.00585938 14.03710938 -131.375 13.33984375 C-117.30424932 -1.63095495 -97.93081801 -11.54052838 -78.23046875 -16.609375 C-77.33714844 -16.85429688 -76.44382812 -17.09921875 -75.5234375 -17.3515625 C-50.36053812 -23.13704803 -19.83622651 -16.57772126 0 0 Z M-107.47265625 52.7578125 C-120.17505501 67.43723831 -126.13354576 86.38171389 -125.546875 105.609375 C-124.1658302 122.11371281 -117.64547664 135.28975182 -105.15625 146.203125 C-93.12729001 155.65613875 -79.39952627 158.71754057 -64.23046875 157.390625 C-47.4531184 154.95559592 -32.59018112 147.06330977 -21.91650391 133.75195312 C-10.6922313 118.70507857 -5.95801306 100.94850141 -7.62890625 82.2578125 C-10.32296023 64.93889408 -17.90974885 49.1283074 -32.00390625 38.25 C-58.55305355 20.55056847 -87.252701 31.41061236 -107.47265625 52.7578125 Z " fill="#EEB542" transform="translate(833.23046875,77.609375)"/>
<path d="M0 0 C14.85 0 29.7 0 45 0 C45 12.85893811 44.97397653 25.66945654 44.64355469 38.5168457 C44.15343693 58.20913639 43.84835255 77.90431647 43.76782227 97.6026001 C43.75604225 100.0547391 43.73904459 102.50685919 43.71655273 104.95892334 C43.68652849 108.40633271 43.67663732 111.85325569 43.671875 115.30078125 C43.65956848 116.30825912 43.64726196 117.315737 43.63458252 118.35374451 C43.67431305 131.28812783 47.4384249 143.86936591 55.25 154.3125 C65.26181433 164.0967731 76.7069243 168.71383015 90.625 169.25 C102.78064139 169.08373743 115.27956202 165.17143367 124.34375 156.85546875 C134.61579556 145.34787054 139.06485779 131.62740263 139.60522461 116.5012207 C139.64253409 115.59907743 139.67984358 114.69693415 139.71828365 113.76745319 C140.14875891 102.50929333 140.2308171 91.24542677 140.31640625 79.98046875 C140.33704387 77.65635365 140.35804174 75.33224172 140.37937927 73.00813293 C140.43389866 66.96679295 140.48360936 60.92542318 140.53222656 54.8840332 C140.58296243 48.68893871 140.63837321 42.49388609 140.69335938 36.29882812 C140.80007959 24.19925359 140.90127276 12.09964239 141 0 C155.52 0 170.04 0 185 0 C185 72.93 185 145.86 185 221 C173.45 221 161.9 221 150 221 C150 211.76 150 202.52 150 193 C142.20117022 199.30129383 142.20117022 199.30129383 134.8125 206.0625 C130.92851839 209.54277026 126.80474995 211.95615926 122.1875 214.3125 C121.24644409 214.80085327 121.24644409 214.80085327 120.28637695 215.29907227 C110.42132 220.0975138 100.31504532 221.54198104 89.4375 221.4375 C88.30779785 221.42920166 87.1780957 221.42090332 86.01416016 221.41235352 C60.44885273 220.90365422 37.73153832 211.46204264 19 194 C1.8713177 175.73329622 -3.39802082 154.09702021 -3.21875 129.8125 C-3.21242742 128.07332362 -3.20612097 126.33414719 -3.1998291 124.5949707 C-3.07329096 101.27412842 -2.31183039 77.96126615 -1.60931396 54.65228271 C-1.39116194 47.36361759 -1.1819049 40.07469167 -0.97105408 32.78581238 C-0.65396295 21.85700075 -0.32599415 10.92856592 0 0 Z " fill="#EFB741" transform="translate(1081,65)"/>
<path d="M0 0 C1.2271875 0.00902344 2.454375 0.01804688 3.71875 0.02734375 C5.09546875 0.04474609 5.09546875 0.04474609 6.5 0.0625 C6.83 0.7225 7.16 1.3825 7.5 2.0625 C6.89414062 2.39121094 6.28828125 2.71992187 5.6640625 3.05859375 C-1.22738055 6.97081296 -6.80247745 11.58244014 -12.5 17.0625 C-13.81291016 18.28066406 -13.81291016 18.28066406 -15.15234375 19.5234375 C-23.81559867 27.80138266 -31.5915589 37.27929319 -37.6484375 47.6484375 C-42.30374316 55.49595276 -42.30374316 55.49595276 -45.94140625 57.21875 C-47.76197649 57.66395495 -49.59738118 58.05167397 -51.44140625 58.38671875 C-65.70190119 61.53750499 -77.72629661 72.04315861 -85.5 84.0625 C-94.62526365 100.04445616 -95.59008118 118.75301956 -97.26171875 136.65234375 C-97.49905098 139.0934223 -97.73758179 141.53438459 -97.97724915 143.97523499 C-98.60031635 150.34741665 -99.20981611 156.72081572 -99.81555176 163.09466553 C-100.7920896 173.34799237 -101.78840536 183.5994079 -102.78687477 193.85061836 C-103.13329164 197.4294384 -103.47317944 201.00883436 -103.81217957 204.58836365 C-104.02135491 206.76066605 -104.23068171 208.93295387 -104.44018555 211.10522461 C-104.53316422 212.10507385 -104.62614288 213.1049231 -104.72193909 214.1350708 C-104.81008881 215.03887985 -104.89823853 215.9426889 -104.98905945 216.87388611 C-105.06406016 217.66336104 -105.13906088 218.45283598 -105.21633434 219.2662344 C-105.5 221.0625 -105.5 221.0625 -106.5 222.0625 C-108.06547048 222.15576716 -109.63512772 222.17995582 -111.20336914 222.17602539 C-112.20433121 222.17594986 -113.20529327 222.17587433 -114.23658752 222.17579651 C-115.3251152 222.17063522 -116.41364288 222.16547394 -117.53515625 222.16015625 C-118.64354355 222.1587413 -119.75193085 222.15732635 -120.89390564 222.15586853 C-124.45013069 222.15025033 -128.00629383 222.13769475 -131.5625 222.125 C-133.96679597 222.11998734 -136.37109292 222.11542403 -138.77539062 222.11132812 C-144.68361504 222.10027499 -150.5918031 222.08351917 -156.5 222.0625 C-156.58392684 215.96471361 -156.31421099 210.07074892 -155.63356018 204.01452637 C-155.54034404 203.14999611 -155.4471279 202.28546586 -155.35108703 201.39473772 C-155.04018164 198.52240178 -154.72237912 195.65087329 -154.40454102 192.77929688 C-154.17916073 190.71069672 -153.95419598 188.64205126 -153.72961426 186.57336426 C-153.12046348 180.9743325 -152.5051935 175.37598898 -151.88856244 169.77777672 C-151.24409892 163.9196001 -150.60447047 158.06089526 -149.96409607 152.20227051 C-148.88895642 142.37339653 -147.80978241 132.54497169 -146.72827148 122.71679688 C-145.47640597 111.34002091 -144.23121892 99.96252867 -142.98951012 88.58464003 C-141.79538319 77.64436831 -140.59631853 66.70464311 -139.3950634 55.76515198 C-138.88344583 51.10504508 -138.37362526 46.44474669 -137.86523628 41.7842865 C-137.26759082 36.30750414 -136.66566032 30.83120973 -136.06034088 25.35527039 C-135.83830242 23.34015506 -135.61777937 21.32487212 -135.39883995 19.30941772 C-135.10108435 16.57068169 -134.79797802 13.83259151 -134.49342346 11.09460449 C-134.40684449 10.28655727 -134.32026552 9.47851005 -134.23106295 8.64597654 C-133.61415373 3.17665373 -133.61415373 3.17665373 -132.5 2.0625 C-131.08774954 1.9696274 -129.67091066 1.94503228 -128.25561523 1.94897461 C-127.35475693 1.94905014 -126.45389862 1.94912567 -125.52574158 1.94920349 C-124.54658279 1.95436478 -123.56742401 1.95952606 -122.55859375 1.96484375 C-121.56118668 1.9662587 -120.5637796 1.96767365 -119.53614807 1.96913147 C-116.33656876 1.97474886 -113.13705831 1.98730429 -109.9375 2 C-107.77408955 2.00501276 -105.61067801 2.00957605 -103.44726562 2.01367188 C-98.13148675 2.02472393 -92.81574829 2.04147896 -87.5 2.0625 C-87.59849243 3.81796143 -87.59849243 3.81796143 -87.69897461 5.60888672 C-88.17587742 14.134043 -88.6449824 22.65918972 -89.0625 31.1875 C-89.12727539 32.49654297 -89.12727539 32.49654297 -89.19335938 33.83203125 C-89.29605823 35.90883022 -89.39810916 37.98566123 -89.5 40.0625 C-88.96632813 39.4334375 -88.43265625 38.804375 -87.8828125 38.15625 C-66.80609724 13.94355288 -32.06233659 -0.3082917 0 0 Z " fill="#3DA2B1" transform="translate(709.5,62.9375)"/>
<path d="M0 0 C-0.12714229 0.65913108 -0.25428457 1.31826216 -0.38527966 1.99736691 C-4.59728645 23.84264345 -8.74343533 45.69982061 -12.84253407 67.56655216 C-13.94278152 73.43529616 -15.04628173 79.30339057 -16.15698242 85.17016602 C-17.24623093 90.92409516 -18.32751993 96.67946753 -19.40323448 102.4359417 C-19.81068469 104.60887622 -20.22092719 106.78128922 -20.63410378 108.95314217 C-21.20875656 111.97658596 -21.77314927 115.00178069 -22.33520508 118.02758789 C-22.50501389 118.90815857 -22.67482269 119.78872925 -22.84977722 120.69598389 C-24.37842974 129.03852155 -25.25545117 136.40098005 -21 144 C-16.9456473 147.80095565 -13.07668893 148.2434922 -7.60400391 148.17822266 C-2.86330466 147.85376077 1.69388683 146.76215621 6.3125 145.6875 C7.32127197 145.4603833 8.33004395 145.2332666 9.36938477 144.99926758 C16.27208526 143.43424005 23.15217062 141.79045057 30 140 C28.68209432 149.08876921 27.09662636 158.10351904 25.34057617 167.11547852 C24.93065189 169.22270287 24.52667673 171.33101503 24.12304688 173.43945312 C23.86232981 174.78652625 23.60127528 176.13353411 23.33984375 177.48046875 C22.98974243 179.28874146 22.98974243 179.28874146 22.63256836 181.13354492 C22 184 22 184 21 186 C13.43123046 188.61214851 5.14746349 188.34919776 -2.75 188.3125 C-3.99338135 188.30758545 -5.2367627 188.3026709 -6.51782227 188.29760742 C-15.06967876 188.18817688 -22.82867363 187.69502849 -31 185 C-32.12148437 184.63648438 -33.24296875 184.27296875 -34.3984375 183.8984375 C-41.29028766 181.45395976 -47.19393904 178.4345505 -53 174 C-53.61359375 173.56171875 -54.2271875 173.1234375 -54.859375 172.671875 C-64.49497334 165.25331699 -70.14454856 152.82850294 -72 141 C-74.68295148 117.38647344 -68.32740433 93.72877997 -63.74176025 70.73590088 C-62.52913605 64.6284776 -61.33992731 58.51650189 -60.14844131 52.4049263 C-57.1305547 36.93032839 -54.07545025 21.46326452 -51 6 C-50.43454468 5.9505423 -49.86908936 5.90108459 -49.28649902 5.85012817 C-38.28149202 4.87608426 -27.38730646 3.78133771 -16.5 1.875 C-14.40686419 1.51464329 -12.31313142 1.15773278 -10.21875 0.8046875 C-9.33123047 0.64983887 -8.44371094 0.49499023 -7.52929688 0.33544922 C-4.98601441 -0.00185485 -2.56202772 -0.02293606 0 0 Z " fill="#42A4B0" transform="translate(98,95)"/>
<path d="M0 0 C2.22656341 2.10903221 3.95132873 4.29032569 5.6875 6.8125 C12.86734784 16.42679257 23.29150055 20.90974491 34.95703125 22.6796875 C46.48658098 23.89332431 57.19165694 22.64710996 68.625 21 C91.40481589 17.7685202 114.37745986 15.67847443 134 30 C140.18388744 35.04144044 144.3963683 40.91955062 148 48 C148.67482422 49.26457031 148.67482422 49.26457031 149.36328125 50.5546875 C153.03725669 58.62067919 151.635636 65.79217293 149 74 C148.34 74.66 147.68 75.32 147 76 C146.41734375 75.27554688 145.8346875 74.55109375 145.234375 73.8046875 C135.55198709 62.38677723 124.96176049 57.79541126 110 56 C98.89548627 55.18747461 88.54661102 56.68586773 77.63476562 58.55908203 C38.10722504 65.17386505 38.10722504 65.17386505 20.8125 53.875 C9.07169393 44.97531847 1.49570594 33.33073764 -2 19 C-2.68138885 12.44664255 -1.71022515 6.32172512 0 0 Z " fill="#EFBA44" transform="translate(2,34)"/>
<path d="M0 0 C5.61 0 11.22 0 17 0 C19.29353362 5.11852723 21.58662012 10.23725055 23.87866211 15.35644531 C24.65510857 17.09027957 25.43179306 18.82400725 26.20874023 20.55761719 C27.33903886 23.07978323 28.46856849 25.60229168 29.59765625 28.125 C29.96823151 28.95265869 30.33880676 29.78031738 30.72061157 30.63305664 C32.52735995 34.67588857 34.32071866 38.72378954 36.08544922 42.78515625 C36.40887802 43.52942871 36.73230682 44.27370117 37.0655365 45.04052734 C37.67193864 46.43961248 38.27618334 47.83963531 38.87794495 49.24072266 C40.08037687 52.34551751 40.08037687 52.34551751 42 55 C42.27038086 54.3287207 42.54076172 53.65744141 42.81933594 52.96582031 C49.98383368 35.20771484 57.39949246 17.57534467 65 0 C70.28 0 75.56 0 81 0 C81 1.32 81 2.64 81 4 C80.195625 4.28875 79.39125 4.5775 78.5625 4.875 C75.8673532 5.73262568 75.8673532 5.73262568 75 8 C74.46538855 18.59297218 75.33049334 29.24305674 76 39.8125 C77.14432678 58.08908831 77.14432678 58.08908831 77 66 C79.31 66 81.62 66 84 66 C84 67.65 84 69.3 84 71 C76.41 71 68.82 71 61 71 C61 69.68 61 68.36 61 67 C61.804375 66.566875 62.60875 66.13375 63.4375 65.6875 C66.33649097 64.20658493 66.33649097 64.20658493 66.67919922 60.87524414 C67.0050248 56.93930092 66.94438596 53.24885815 66.6953125 49.30859375 C66.63015945 48.24609154 66.63015945 48.24609154 66.56369019 47.16212463 C66.47111468 45.67533416 66.3751312 44.18875227 66.27587891 42.70239258 C66.12521291 40.44069608 65.98555119 38.17852315 65.84765625 35.91601562 C65.27971611 26.91911254 65.27971611 26.91911254 64 18 C63.770849 18.55852661 63.541698 19.11705322 63.30560303 19.69250488 C60.90807527 25.5344665 58.50627603 31.37465879 56.10205078 37.21386719 C55.20676016 39.38985343 54.31253938 41.56628017 53.41943359 43.74316406 C52.13143172 46.88204044 50.83952044 50.01928355 49.546875 53.15625 C49.15191833 54.12115356 48.75696167 55.08605713 48.35003662 56.0802002 C46.10700682 61.5114441 43.69668102 66.77853794 41 72 C39.11323547 71.69104004 39.11323547 71.69104004 37 71 C35.58301153 68.60939286 34.45643125 66.37641645 33.35546875 63.84375 C33.02259354 63.10862183 32.68971832 62.37349365 32.34675598 61.61608887 C31.27983386 59.24999519 30.23382184 56.8752639 29.1875 54.5 C28.49542555 52.96166087 27.80207838 51.42389365 27.10742188 49.88671875 C22.51853324 39.6807123 18.20244233 29.37037015 14 19 C12.45662509 22.08674981 12.78022701 25.36247798 12.71875 28.75390625 C12.70034058 29.52878891 12.68193115 30.30367157 12.66296387 31.10203552 C12.60415443 33.58877886 12.55145488 36.07559432 12.5 38.5625 C12.44829258 41.02440162 12.39508643 43.48622209 12.33703613 45.94798279 C12.300962 47.4795251 12.26841327 49.01115628 12.2401123 50.54286194 C12.1182493 55.74476028 11.62972606 60.83439788 11 66 C13.64 66 16.28 66 19 66 C19 67.65 19 69.3 19 71 C12.07 71 5.14 71 -2 71 C-2 69.68 -2 68.36 -2 67 C-1.030625 66.690625 -0.06125 66.38125 0.9375 66.0625 C1.948125 65.381875 2.95875 64.70125 4 64 C4.51597882 60.93839802 4.82702603 58.08618977 5 55 C5.07675461 53.66423416 5.07675461 53.66423416 5.15505981 52.30148315 C5.30439893 49.33565003 5.42348452 46.36982721 5.53515625 43.40234375 C5.57813339 42.32747208 5.62111053 41.2526004 5.66539001 40.14515686 C5.80074968 36.74271485 5.93169486 33.34011984 6.0625 29.9375 C6.15400424 27.61782698 6.24579819 25.29816537 6.33789062 22.97851562 C6.56194439 17.31913805 6.78238288 11.65962855 7 6 C4.69 5.67 2.38 5.34 0 5 C0 3.35 0 1.7 0 0 Z " fill="#409FB1" transform="translate(13,319)"/>
<path d="M0 0 C1.3997138 0.02011176 2.79945576 0.03835421 4.19921875 0.0546875 C7.59187915 0.10148282 10.98306384 0.16703637 14.375 0.25 C13.05042094 9.67425659 11.31140184 18.96702454 9.34326172 28.27490234 C8.86721232 30.53700568 8.40428086 32.80157486 7.94140625 35.06640625 C7.638813 36.50797901 7.33545733 37.94939199 7.03125 39.390625 C6.89473022 40.06651672 6.75821045 40.74240845 6.61755371 41.43878174 C6.26806854 43.05785218 5.82947743 44.65721023 5.375 46.25 C2.42179848 47.72660076 -0.13829079 47.18420562 -3.4375 47.0625 C-15.70352613 46.80885325 -27.8049216 49.02626916 -39.89208984 50.8828125 C-42.625 51.25 -42.625 51.25 -45.625 51.25 C-41.76725848 18.7637556 -41.76725848 18.7637556 -29.875 7.375 C-20.6042487 0.14674328 -11.36086905 -0.28638576 0 0 Z " fill="#40A0B1" transform="translate(102.625,0.75)"/>
<path d="M0 0 C0 23.43 0 46.86 0 71 C2.31 71 4.62 71 7 71 C7 72.65 7 74.3 7 76 C1.72 76 -3.56 76 -9 76 C-9.33 74.68 -9.66 73.36 -10 72 C-10.763125 72.639375 -11.52625 73.27875 -12.3125 73.9375 C-18.04101533 78.33380246 -25.07996375 77.68204123 -32 77 C-38.52586794 74.59887913 -42.52636999 69.96185042 -45.578125 63.828125 C-47.19110938 59.97206063 -47.50046869 56.27443709 -47.4375 52.125 C-47.42614014 51.07227905 -47.42614014 51.07227905 -47.41455078 49.99829102 C-47.14980172 41.6413032 -44.30129217 35.61924346 -38.7109375 29.50390625 C-32.73662337 24.25251141 -25.78539842 22.61073008 -18 23 C-15.36 23.66 -12.72 24.32 -10 25 C-9.67 19.06 -9.34 13.12 -9 7 C-11.31 7 -13.62 7 -16 7 C-16 5.35 -16 3.7 -16 2 C-14.27192682 1.66104344 -12.54248026 1.32908475 -10.8125 1 C-9.84957031 0.814375 -8.88664062 0.62875 -7.89453125 0.4375 C-5 0 -5 0 0 0 Z M-32.25 34.375 C-36.72513537 41.08770305 -36.60697934 48.20265005 -36 56 C-34.90224142 61.47276723 -33.06793182 66.05171324 -29 70 C-25.39060649 72.20574048 -22.33497002 72.12881678 -18.16015625 71.77734375 C-14.80087096 70.56848702 -12.22129201 68.7606805 -10 66 C-9.36172357 63.16493722 -9.11420501 61.14634869 -9.125 58.3125 C-9.1051001 57.58297119 -9.0852002 56.85344238 -9.06469727 56.10180664 C-9.01008244 53.73373789 -9.00142177 51.36866335 -9 49 C-8.98595434 47.29426853 -8.97162952 45.58853933 -8.95703125 43.8828125 C-8.9327537 39.58777962 -8.9547912 35.29483574 -9 31 C-18.33673706 26.76419991 -24.59819137 26.29809089 -32.25 34.375 Z " fill="#42A4B0" transform="translate(205,314)"/>
<path d="M0 0 C1.32 0 2.64 0 4 0 C4.495 14.355 4.495 14.355 5 29 C7.64 27.68 10.28 26.36 13 25 C18.68976429 23.48658886 23.9107944 23.57448862 29.3125 25.9921875 C33.14880892 28.28331644 34.67087134 31.03983242 36.08935547 35.17797852 C37.03919978 39.16452346 37.2565193 42.83651046 37.1953125 46.90234375 C37.1924826 47.6249086 37.18965271 48.34747345 37.18673706 49.0919342 C37.17564386 51.37396616 37.15056088 53.65558897 37.125 55.9375 C37.11495611 57.49543699 37.10583274 59.05338021 37.09765625 60.61132812 C37.07574033 64.40770699 37.04128738 68.2037844 37 72 C38.98 72 40.96 72 43 72 C43 73.65 43 75.3 43 77 C36.07 77 29.14 77 22 77 C22 75.68 22 74.36 22 73 C22.639375 72.71125 23.27875 72.4225 23.9375 72.125 C26.15206079 71.17176549 26.15206079 71.17176549 27 69 C27.27304026 64.63052842 27.23172433 60.25202253 27.25 55.875 C27.270625 54.66328125 27.29125 53.4515625 27.3125 52.203125 C27.34209134 45.41191229 27.02645903 40.1263758 24 34 C21.54026222 31.54026222 20.70700615 31.67698325 17.3125 31.625 C16.48363281 31.59664063 15.65476562 31.56828125 14.80078125 31.5390625 C10.99142822 32.16598531 7.85397293 33.40065524 5 36 C4.27106979 39.0907765 4.0401612 41.17287448 4.09765625 44.265625 C4.07921913 45.45572174 4.07921913 45.45572174 4.06040955 46.66986084 C4.02868082 49.19751521 4.04495289 51.72225454 4.0625 54.25 C4.0493908 55.96617295 4.03315083 57.68232503 4.01367188 59.3984375 C3.97281894 63.59958028 3.97500012 67.79875378 4 72 C5.98 72 7.96 72 10 72 C10 73.65 10 75.3 10 77 C2.74 77 -4.52 77 -12 77 C-12 75.68 -12 74.36 -12 73 C-9.525 72.505 -9.525 72.505 -7 72 C-6.67 50.88 -6.34 29.76 -6 8 C-8.31 8 -10.62 8 -13 8 C-13 6.35 -13 4.7 -13 3 C-12.14535156 2.86722656 -11.29070312 2.73445313 -10.41015625 2.59765625 C-9.30542969 2.42105469 -8.20070313 2.24445313 -7.0625 2.0625 C-5.96035156 1.88847656 -4.85820312 1.71445312 -3.72265625 1.53515625 C-1.09573071 1.28154864 -1.09573071 1.28154864 0 0 Z " fill="#49B6AF" transform="translate(376,313)"/>
<path d="M0 0 C3.80667218 3.43528953 5.62187625 7.32916149 6.5625 12.3125 C6.64548675 14.85885479 6.67889258 17.37643883 6.66015625 19.921875 C6.6587413 20.64868469 6.65732635 21.37549438 6.65586853 22.12432861 C6.65028792 24.43709494 6.63773904 26.74976312 6.625 29.0625 C6.61998249 30.63411318 6.61542002 32.20572789 6.61132812 33.77734375 C6.60032485 37.62243343 6.58307361 41.4674501 6.5625 45.3125 C8.5425 45.3125 10.5225 45.3125 12.5625 45.3125 C12.5625 46.9625 12.5625 48.6125 12.5625 50.3125 C5.6325 50.3125 -1.2975 50.3125 -8.4375 50.3125 C-8.4375 48.9925 -8.4375 47.6725 -8.4375 46.3125 C-7.798125 46.10625 -7.15875 45.9 -6.5 45.6875 C-4.18839541 44.48015477 -4.18839541 44.48015477 -3.82421875 41.8671875 C-3.32242281 37.25471975 -3.2138835 32.69939994 -3.1875 28.0625 C-3.166875 27.17175781 -3.14625 26.28101563 -3.125 25.36328125 C-3.08803402 18.99589133 -3.9274144 13.21016923 -6.4375 7.3125 C-8.47466734 4.92308877 -8.47466734 4.92308877 -11.4375 4.3125 C-17.38362529 4.40688294 -20.78186069 5.36489527 -25.4375 9.3125 C-26.05718961 12.32600006 -26.27793451 14.56389603 -26.2421875 17.578125 C-26.26274704 18.76822174 -26.26274704 18.76822174 -26.28372192 19.98236084 C-26.32103163 22.50965021 -26.31730701 25.03497427 -26.3125 27.5625 C-26.33062635 29.27867656 -26.35142885 30.99482709 -26.375 32.7109375 C-26.42685915 36.91178778 -26.44193026 41.11134717 -26.4375 45.3125 C-24.4575 45.3125 -22.4775 45.3125 -20.4375 45.3125 C-20.4375 46.9625 -20.4375 48.6125 -20.4375 50.3125 C-27.6975 50.3125 -34.9575 50.3125 -42.4375 50.3125 C-42.4375 48.9925 -42.4375 47.6725 -42.4375 46.3125 C-39.9625 45.8175 -39.9625 45.8175 -37.4375 45.3125 C-37.41244385 44.17184082 -37.3873877 43.03118164 -37.36157227 41.85595703 C-37.26755707 37.63285659 -37.16732213 33.40992291 -37.06518555 29.18701172 C-37.02181435 27.35762425 -36.98014089 25.52819573 -36.94018555 23.69873047 C-36.88253582 21.07246514 -36.81882635 18.4464069 -36.75390625 15.8203125 C-36.72883751 14.58899094 -36.72883751 14.58899094 -36.70326233 13.33279419 C-36.55137171 7.54024341 -36.55137171 7.54024341 -35.4375 5.3125 C-37.7475 5.6425 -40.0575 5.9725 -42.4375 6.3125 C-42.4375 4.6625 -42.4375 3.0125 -42.4375 1.3125 C-40.71257022 0.77780198 -38.982302 0.26030825 -37.25 -0.25 C-35.80560547 -0.68505859 -35.80560547 -0.68505859 -34.33203125 -1.12890625 C-31.30997412 -1.71211026 -29.37820045 -1.49928385 -26.4375 -0.6875 C-26.1075 0.3025 -25.7775 1.2925 -25.4375 2.3125 C-24.90640625 2.03535156 -24.3753125 1.75820313 -23.828125 1.47265625 C-23.12171875 1.11042969 -22.4153125 0.74820312 -21.6875 0.375 C-20.99140625 0.01535156 -20.2953125 -0.34429687 -19.578125 -0.71484375 C-13.08857088 -3.66356451 -6.34477657 -3.1147085 0 0 Z " fill="#3DA1B1" transform="translate(815.4375,339.6875)"/>
<path d="M0 0 C0.01458252 1.15000488 0.02916504 2.30000977 0.04418945 3.48486328 C0.10233762 7.76788805 0.17956924 12.05039616 0.26245117 16.33300781 C0.29562296 18.18350819 0.32367887 20.03410786 0.34643555 21.88476562 C0.3801245 24.55121003 0.4324466 27.2167509 0.48828125 29.8828125 C0.49467117 30.70492218 0.5010611 31.52703186 0.50764465 32.37405396 C0.63676415 37.46440379 1.181683 42.181683 5 46 C9.77909972 46.61373702 13.16518896 46.45535148 17.4375 44.125 C19.97054468 42.09140828 19.97054468 42.09140828 22 40 C22.17488254 37.56255103 22.23177405 35.2406392 22.1953125 32.8046875 C22.1924826 32.09724396 22.18965271 31.38980042 22.18673706 30.66091919 C22.17553137 28.3987749 22.15042679 26.13702485 22.125 23.875 C22.11497067 22.34245363 22.10584474 20.80990106 22.09765625 19.27734375 C22.07559086 15.51807699 22.04105896 11.75910536 22 8 C20.02 8 18.04 8 16 8 C16 6.35 16 4.7 16 3 C17.54140966 2.68623479 19.08314215 2.37405535 20.625 2.0625 C21.48351562 1.88847656 22.34203125 1.71445312 23.2265625 1.53515625 C26.14170057 0.97265778 29.07148391 0.48808602 32 0 C32 15.51 32 31.02 32 47 C34.31 47 36.62 47 39 47 C39 48.65 39 50.3 39 52 C34.05 52 29.1 52 24 52 C23.34 50.68 22.68 49.36 22 48 C21.50113281 48.3609375 21.00226562 48.721875 20.48828125 49.09375 C13.8161729 53.40606419 7.83392135 54.1043868 0 53 C-5.07360306 50.72562622 -6.97479798 48.11629984 -9 43 C-10.24477245 39.21914411 -10.11336073 35.5669044 -10.09765625 31.609375 C-10.0962413 30.90476135 -10.09482635 30.20014771 -10.09336853 29.47418213 C-10.08778933 27.23274416 -10.07524073 24.99140757 -10.0625 22.75 C-10.05748231 21.22656395 -10.05291987 19.70312632 -10.04882812 18.1796875 C-10.03782674 14.45309228 -10.02057646 10.72655604 -10 7 C-11.98 7.33 -13.96 7.66 -16 8 C-16.33 6.35 -16.66 4.7 -17 3 C-15.10614563 2.49255577 -13.20981334 1.99435426 -11.3125 1.5 C-9.72888672 1.08234375 -9.72888672 1.08234375 -8.11328125 0.65625 C-5.27356794 0.05766551 -2.88199527 -0.05127345 0 0 Z " fill="#41A8B0" transform="translate(601,338)"/>
<path d="M0 0 C5.79650921 4.72787902 9.18413493 10.2046772 10.72265625 17.5234375 C11.35476192 26.6889697 9.24643606 34.57098183 3.40625 41.765625 C-0.84737032 46.20675991 -5.3047251 49.30833698 -11.5703125 49.76171875 C-20.48622416 49.93163081 -26.75216451 49.78957249 -33.4609375 43.46484375 C-40.16340233 36.38006363 -41.76629214 30.52635548 -41.58984375 20.84375 C-40.83970201 12.87349405 -37.38523867 5.76674456 -31.27734375 0.5234375 C-21.46116054 -5.69221519 -10.01461713 -6.49318229 0 0 Z M-25.27734375 4.5234375 C-30.31134541 11.28887923 -30.94159709 18.35074904 -30.27734375 26.5234375 C-29.09234536 32.4571427 -27.32106314 37.91809042 -23.27734375 42.5234375 C-19.18432729 45.09160469 -16.28094648 45.82586297 -11.58984375 45.0234375 C-7.42168596 43.86797879 -5.49339138 42.33503943 -3.27734375 38.5234375 C0.52869505 30.99440076 -0.21430085 20.32149599 -2 12.26171875 C-4.09912811 6.57622601 -6.7781706 3.27302407 -12.27734375 0.5234375 C-17.97357179 -0.02427673 -20.93826215 0.76290011 -25.27734375 4.5234375 Z " fill="#3DA2B1" transform="translate(755.27734375,341.4765625)"/>
<path d="M0 0 C6.47808562 5.27409932 9.74542095 10.8189805 10.87109375 19.1015625 C11.27743711 27.83178799 8.72362332 34.96982323 3.25 41.74609375 C-2.41736451 47.64015284 -7.16604225 49.58673638 -15.375 49.93359375 C-23.75104205 49.664556 -30.1149912 47.22832181 -35.9375 41.12109375 C-40.82182363 34.72857953 -42.45973676 27.28892205 -41.5 19.37109375 C-40.0208535 11.45765998 -37.00754387 4.51698374 -30.25 -0.19921875 C-20.36739272 -5.88821965 -9.82801349 -6.40356504 0 0 Z M-26.75 5.99609375 C-31.20267182 14.58338941 -31.44509061 23.68925397 -28.74609375 32.9609375 C-26.66023172 38.20613868 -24.29277091 41.36386494 -19.5 44.37109375 C-15.42891224 45.53426168 -13.30971865 45.6568768 -9.3125 44.24609375 C-4.75630209 41.20862848 -2.56103915 38.34827253 -1.25 33.05859375 C0.43206267 23.84513337 -0.24433267 14.48590483 -4.71875 6.08203125 C-7.34653002 2.53452823 -9.61554399 0.96207394 -14 0.24609375 C-19.6636625 0.0652373 -23.04391083 1.67232305 -26.75 5.99609375 Z " fill="#45AFB0" transform="translate(540.5,341.62890625)"/>
<path d="M0 0 C4.96124546 4.17987284 7.89980848 8.52109437 9 15 C9.0216432 16.66652613 9.02555066 18.3335292 9 20 C0.91472452 20.9012994 -7.05674103 21.12442142 -15.1875 21.0625 C-16.90163086 21.05573242 -16.90163086 21.05573242 -18.65039062 21.04882812 C-21.4336511 21.03718268 -24.21679572 21.02082997 -27 21 C-26.60046917 23.3790245 -26.18111095 25.75166756 -25.75 28.125 C-25.64042969 28.79015625 -25.53085937 29.4553125 -25.41796875 30.140625 C-24.42161761 35.48945742 -22.72280469 40.08518207 -18.078125 43.3515625 C-12.30894056 45.15172155 -5.98491948 44.84275607 -0.5625 42.1875 C2.10448622 40.64864347 4.63104645 38.97412796 7 37 C7.66 38.32 8.32 39.64 9 41 C5.58377803 46.43489859 1.00551169 49.11123188 -5 51 C-13.16877941 52.09677489 -20.6962622 51.86630313 -27.91015625 47.6171875 C-33.48449789 43.30358481 -36.85621119 37.97711172 -38 31 C-38.85326678 20.72080177 -37.59083268 13.38207338 -31.25 5.1875 C-23.23971092 -3.57502435 -10.43867657 -5.5231093 0 0 Z M-23.3125 7.3125 C-25.45215326 10.33687205 -25.45215326 10.33687205 -26 16 C-18.08 16 -10.16 16 -2 16 C-2.07951882 7.45944655 -2.07951882 7.45944655 -5.6875 3.9375 C-12.4058971 0.00787151 -17.96808079 1.96808079 -23.3125 7.3125 Z " fill="#45ACB0" transform="translate(295,340)"/>
<path d="M0 0 C3.4916356 3.07988612 6.09033908 6.79217245 6.65625 11.4609375 C6.69513349 13.79394683 6.7011135 16.12803551 6.65625 18.4609375 C-1.07160134 19.43047132 -8.68708901 19.58225238 -16.46875 19.5234375 C-17.61601563 19.51892578 -18.76328125 19.51441406 -19.9453125 19.50976562 C-22.74484813 19.49810089 -25.54426986 19.48173364 -28.34375 19.4609375 C-27.02854777 30.98715988 -27.02854777 30.98715988 -21.34375 40.8359375 C-16.742089 43.32850387 -12.4627557 43.1983607 -7.34375 42.4609375 C-5.06381662 41.62881779 -3.08614329 40.66671658 -1 39.43359375 C0.65625 38.4609375 0.65625 38.4609375 3.65625 37.4609375 C4.15125 36.4709375 4.15125 36.4709375 4.65625 35.4609375 C5.64625 36.4509375 6.63625 37.4409375 7.65625 38.4609375 C3.59295887 44.13361061 -0.45015316 47.81077055 -7.34375 49.4609375 C-14.56367768 50.21398372 -22.23179806 50.7905412 -28.6328125 46.86328125 C-34.46527622 42.08279158 -38.54931414 37.0184906 -39.86328125 29.48046875 C-40.79064631 19.32891261 -39.71273991 11.30063454 -33.15234375 3.21875 C-24.15396259 -5.52697683 -10.39917852 -7.37318805 0 0 Z M-24.34375 4.4609375 C-26.38861842 7.52824012 -28.34375 10.70539857 -28.34375 14.4609375 C-20.09375 14.4609375 -11.84375 14.4609375 -3.34375 14.4609375 C-3.86219178 6.59819027 -3.86219178 6.59819027 -8.34375 1.4609375 C-14.32626364 -0.50623333 -19.71887562 0.01578621 -24.34375 4.4609375 Z " fill="#41A1B1" transform="translate(143.34375,341.5390625)"/>
<path d="M0 0 C0.33 -0.66 0.66 -1.32 1 -2 C2.65 -2 4.3 -2 6 -2 C6 3.94 6 9.88 6 16 C4.68 16 3.36 16 2 16 C1.76925781 15.31292969 1.53851563 14.62585938 1.30078125 13.91796875 C-0.65060538 8.35648761 -0.65060538 8.35648761 -4.3125 3.875 C-8.49667667 2.51270992 -12.10981018 2.55232346 -16.375 3.5625 C-18.32042306 5.04392897 -18.32042306 5.04392897 -19.125 8.3125 C-19.41400469 12.14800562 -19.41400469 12.14800562 -16.52734375 14.484375 C-12.19121131 17.84423997 -7.21946544 19.77975765 -2.18945312 21.87304688 C2.94737138 24.13727495 5.80187358 26.34706368 9 31 C10.63086206 36.60608834 9.77616202 39.92632458 7 45 C4.32607949 48.29783529 2.00577852 49.69084892 -2 51 C-9.51041114 51.6835717 -16.35691498 51.79604858 -23 48 C-23 48.99 -23 49.98 -23 51 C-24.65 51 -26.3 51 -28 51 C-28.33 45.06 -28.66 39.12 -29 33 C-27.02 32.505 -27.02 32.505 -25 32 C-24.76925781 32.60328125 -24.53851563 33.2065625 -24.30078125 33.828125 C-22.31179895 38.70231088 -20.80497954 42.37910207 -16 45 C-11.53103523 46.08120115 -8.405412 46.43559466 -4.0625 44.875 C-0.86118881 43.31722488 -0.86118881 43.31722488 0.0625 40.5625 C-0.008116 37.66724419 -0.43709953 36.41876747 -2 34 C-4.09438927 32.64223315 -4.09438927 32.64223315 -6.61328125 31.6328125 C-7.9909668 31.01599609 -7.9909668 31.01599609 -9.39648438 30.38671875 C-11.3277781 29.55107525 -13.26005936 28.71771008 -15.19335938 27.88671875 C-20.8845243 25.33344979 -24.54967353 23.26441564 -28 18 C-29.47523191 13.0210923 -29.00700056 9.4606642 -27.01171875 4.79296875 C-24.88550018 1.02488255 -21.99018531 -0.56948465 -18.125 -2.25 C-11.16974581 -3.91926101 -6.40475619 -2.69673945 0 0 Z " fill="#47B4AF" transform="translate(482,340)"/>
<path d="M0 0 C2.73658141 2.65106325 2.96816428 3.49975886 3.25 7.375 C3 10.9375 3 10.9375 1.875 12.9375 C-0.93136238 14.43422661 -3.00159282 13.67044398 -6 12.9375 C-7 6.3125 -7 6.3125 -7 2.9375 C-11.33297734 0.48672096 -15.11065929 0.24144802 -20 0.9375 C-24.60790111 3.32678206 -27.91028794 5.83700974 -29.65625 10.8046875 C-32.15455546 20.04184322 -31.0475373 28.56900141 -26.3671875 36.8984375 C-24.44684585 39.7624899 -23.34412332 40.91972334 -20 41.9375 C-13.08602677 42.87388063 -8.21461766 42.24239641 -2.4609375 38.2265625 C-0.86577246 36.98136924 -0.86577246 36.98136924 0 34.9375 C1.32 35.2675 2.64 35.5975 4 35.9375 C3.44077721 39.61702385 2.09684339 41.15470591 -0.6875 43.5625 C-1.35136719 44.15289062 -2.01523437 44.74328125 -2.69921875 45.3515625 C-9.40613998 49.97466949 -17.17521822 49.6366214 -25 48.9375 C-31.66850482 47.25170198 -36.24923463 42.53388008 -40 36.9375 C-43.9018766 29.1337468 -44.06812732 21.59571037 -41.4375 13.375 C-38.31524078 5.55291902 -33.61578104 0.0012616 -25.83984375 -3.38671875 C-16.87733516 -6.6786805 -7.80650173 -5.36696994 0 0 Z " fill="#46B0B0" transform="translate(354,342.0625)"/>
<path d="M0 0 C1.65 0 3.3 0 5 0 C5 4.62 5 9.24 5 14 C10.61 14 16.22 14 22 14 C21.67 15.65 21.34 17.3 21 19 C15.72 19 10.44 19 5 19 C5.09700972 23.91175515 5.19978377 28.82268092 5.31738281 33.73388672 C5.35562857 35.40405941 5.39048915 37.07431323 5.421875 38.74462891 C5.46762161 41.14775557 5.52559925 43.55032584 5.5859375 45.953125 C5.59748871 46.69806213 5.60903992 47.44299927 5.62094116 48.21051025 C5.76501839 53.41871088 5.76501839 53.41871088 8 58 C10.26704105 59.104597 10.26704105 59.104597 13 59 C16.0999475 57.74170298 16.0999475 57.74170298 19 56 C20.33333333 55.33333333 21.66666667 54.66666667 23 54 C23.66 54.99 24.32 55.98 25 57 C21.7347918 61.32159909 19.28814226 64.23728591 14 66 C8.81748921 66.69615817 3.78040758 67.18286573 -0.5625 63.875 C-5.05540433 58.57567694 -5.28704976 53.26201669 -5.1953125 46.5390625 C-5.19106766 45.3532106 -5.19106766 45.3532106 -5.18673706 44.1434021 C-5.17560955 41.63710916 -5.15051926 39.13118355 -5.125 36.625 C-5.11496058 34.91797394 -5.10583641 33.21094223 -5.09765625 31.50390625 C-5.07569463 27.3357976 -5.04121671 23.16796092 -5 19 C-7.64 19 -10.28 19 -13 19 C-13 17.35 -13 15.7 -13 14 C-11.6696875 13.443125 -11.6696875 13.443125 -10.3125 12.875 C-4.99071997 9.86267168 -1.87675774 5.80088755 0 0 Z " fill="#3FA5B0" transform="translate(657,325)"/>
<path d="M0 0 C1.32 0 2.64 0 4 0 C4 4.62 4 9.24 4 14 C9.61 14 15.22 14 21 14 C21 15.65 21 17.3 21 19 C15.39 19 9.78 19 4 19 C4.09713145 23.60863188 4.19998007 28.21640518 4.31738281 32.82446289 C4.35557409 34.39079081 4.39044394 35.95720349 4.421875 37.52368164 C4.46774071 39.780418 4.52569769 42.03657583 4.5859375 44.29296875 C4.59748871 44.98899704 4.60903992 45.68502533 4.62094116 46.40214539 C4.7392035 50.33222523 5.11395202 53.52004725 7 57 C9.72971446 59.25145666 9.72971446 59.25145666 12.375 58.875 C15.17137033 58.11892643 15.17137033 58.11892643 17.5625 55.875 C20 54 20 54 22.3125 54.25 C22.869375 54.4975 23.42625 54.745 24 55 C22.56314642 60.02898754 20.05763331 61.95677502 16 65 C12.04099172 66.97950414 7.31506628 66.41444139 3 66 C-1.451611 64.17165977 -2.63130071 62.7987025 -4.64453125 58.4375 C-6.97284485 51.04014492 -6.31378574 43.10598292 -6.1875 35.4375 C-6.17242639 33.84050741 -6.15874272 32.24350106 -6.14648438 30.64648438 C-6.11368925 26.76397876 -6.06205574 22.88214367 -6 19 C-8.31 19 -10.62 19 -13 19 C-13.5 16.8125 -13.5 16.8125 -13 14 C-11.39453125 12.87109375 -11.39453125 12.87109375 -9.3125 11.75 C-4.26634401 8.96251419 -2.3260024 5.13286107 0 0 Z " fill="#43A8B0" transform="translate(229,325)"/>
<path d="M0 0 C1.32 0 2.64 0 4 0 C4 23.76 4 47.52 4 72 C5.98 72 7.96 72 10 72 C10 73.65 10 75.3 10 77 C3.07 77 -3.86 77 -11 77 C-11 75.68 -11 74.36 -11 73 C-10.360625 72.773125 -9.72125 72.54625 -9.0625 72.3125 C-6.78612731 71.18691795 -6.78612731 71.18691795 -6.38392639 68.78620911 C-5.98159343 65.86642085 -5.83962282 63.0552678 -5.79467773 60.1081543 C-5.77473251 58.94732834 -5.75478729 57.78650238 -5.73423767 56.59049988 C-5.70916893 54.72619072 -5.70916893 54.72619072 -5.68359375 52.82421875 C-5.66281265 51.54392288 -5.64203156 50.26362701 -5.62062073 48.9445343 C-5.56562428 45.55310271 -5.51611688 42.16161265 -5.46777344 38.77008057 C-5.41739384 35.30435021 -5.36179399 31.83870397 -5.30664062 28.37304688 C-5.19962571 21.5820984 -5.09782866 14.79108669 -5 8 C-7.31 8 -9.62 8 -12 8 C-12 6.35 -12 4.7 -12 3 C-10.82630859 2.80083984 -10.82630859 2.80083984 -9.62890625 2.59765625 C-8.61699219 2.42105469 -7.60507812 2.24445313 -6.5625 2.0625 C-5.55316406 1.88847656 -4.54382813 1.71445312 -3.50390625 1.53515625 C-1.0712562 1.25248903 -1.0712562 1.25248903 0 0 Z " fill="#43ACB0" transform="translate(569,313)"/>
<path d="M0 0 C0 15.51 0 31.02 0 47 C1.98 47 3.96 47 6 47 C6 48.65 6 50.3 6 52 C-0.93 52 -7.86 52 -15 52 C-15 50.68 -15 49.36 -15 48 C-14.360625 47.731875 -13.72125 47.46375 -13.0625 47.1875 C-10.66868314 46.11332248 -10.66868314 46.11332248 -10 43 C-9.84629652 40.27116927 -9.74271735 37.56302858 -9.68359375 34.83203125 C-9.66281265 34.03721848 -9.64203156 33.2424057 -9.62062073 32.42350769 C-9.55527913 29.88659237 -9.49631192 27.34957427 -9.4375 24.8125 C-9.39430014 23.09178628 -9.35068537 21.37108292 -9.30664062 19.65039062 C-9.19961352 15.43369887 -9.09830276 11.2169038 -9 7 C-11.31 7.33 -13.62 7.66 -16 8 C-16 6.35 -16 4.7 -16 3 C-14.08487728 2.49411853 -12.16783078 1.99551609 -10.25 1.5 C-8.64898438 1.08234375 -8.64898438 1.08234375 -7.015625 0.65625 C-4 0 -4 0 0 0 Z " fill="#3EA4B1" transform="translate(701,338)"/>
<path d="M0 0 C2.9375 0.8125 2.9375 0.8125 4.9375 3.8125 C4.75 7.375 4.75 7.375 3.9375 10.8125 C0.9375 12.8125 0.9375 12.8125 -2.125 12.625 C-5.0625 11.8125 -5.0625 11.8125 -7.0625 8.8125 C-6.875 5.25 -6.875 5.25 -6.0625 1.8125 C-3.0625 -0.1875 -3.0625 -0.1875 0 0 Z " fill="#3EA3B0" transform="translate(697.0625,316.1875)"/>
</svg>
