<svg width="155" height="41" viewBox="0 0 155 41" fill="none" xmlns="http://www.w3.org/2000/svg">
<g clip-path="url(#clip0_564_1852)">
<path d="M150.794 30.1329L150.813 26.9599L148.829 28.4549C147.353 29.5674 145.528 30.1329 143.409 30.1329C136.636 30.1329 131.849 26.1851 132.024 20.8172L132.455 6.87896H137.807L137.526 18.8919C137.439 22.4097 139.837 24.7931 143.496 24.7931C147.125 24.7931 149.582 22.4097 149.609 18.8919L149.696 6.87896H155V30.1329H150.794ZM100.652 29.9775L100.878 27.1987L98.8974 28.375C97.0799 29.4458 94.9715 30.0179 92.8168 30.0248C85.7722 30.0248 80.6284 24.6783 81.3386 18.2153C82.1553 10.7823 89.063 6.25977 95.0028 6.25977C102.071 6.25977 107.024 11.3494 106.516 18.2153L105.642 29.9775H100.652ZM101.124 18.2153C101.401 14.8311 98.821 11.2437 94.5443 11.2437C90.2676 11.2437 87.028 14.8311 86.6819 18.2153C86.2986 21.963 89.1406 24.8156 93.296 24.8156C97.4513 24.8156 100.818 21.963 101.124 18.2153ZM124.962 6.87895L117.334 22.7454L111.48 6.87896H105.175L112.248 26.6255C113.173 28.6729 113.053 30.784 111.909 32.421C110.682 34.1774 108.414 35.1887 105.692 35.1887C105.379 35.1887 105.06 35.1757 104.736 35.1497L104.33 40.8799C105.019 40.9576 105.712 40.9975 106.405 40.9993C113.335 40.9993 117.02 36.6151 120.365 30.1284L131.221 6.87896L124.962 6.87895Z" fill="url(#paint0_linear_564_1852)"/>
<path d="M66.4026 9.94377C64.6328 7.3167 61.3685 5.81906 57.4361 5.81906C52.3703 5.81906 43.5 9.16283 43.8239 21.1018C43.8629 24.6431 46.7286 29.9782 54.4612 29.9782C58.9685 29.9782 62.5677 29.0539 65.1759 27.2348L60.8783 23.6814C59.3522 24.4525 57.1369 24.7074 56.0678 24.7232C49.7879 24.8163 50.1055 20.1419 50.1055 20.1419H66.9067C68.3736 16.1924 68.1943 12.6032 66.4026 9.94377ZM61.2383 14.2653L60.966 15.2566H51.4712L51.6477 14.1249C51.8697 12.7017 53.6733 10.707 56.9911 10.707C59.2363 10.707 60.2967 11.6204 60.7298 12.1658C60.9747 12.4604 61.1471 12.8009 61.2349 13.1635C61.3228 13.5262 61.3239 13.9022 61.2383 14.2653ZM81.538 12.4459C81.5093 12.4457 75.6956 12.9818 75.1096 18.9027L73.8342 29.9783H67.7209L70.6486 6.87967H76.1427L75.9479 8.47654L75.6647 11.5405C76.9592 8.55447 84.4265 6.31353 87.7924 6.76152C85.689 7.47822 83.0216 10.2912 81.538 12.4459ZM36.8542 7.19173C41.6443 8.43247 43.4784 11.6092 42.4761 17.303L40.3673 29.9783H34.4006L36.494 17.9419C37.1797 14.1856 35.4083 11.8725 31.877 11.8725C28.1386 11.8725 25.1897 14.5441 24.3563 18.7195L22.2223 29.9783H16.2558L22.3721 0H28.0926L26.4388 8.28579C26.4388 8.28579 31.5548 5.81906 36.8542 7.19173ZM9.61309 10.3685C10.369 10.2205 11.1353 10.1226 11.9062 10.0754L11.2895 12.6586L8.88939 23.7583C8.83693 26.501 11.172 25.9489 15.6078 24.8474L14.5354 29.569C13.5473 29.7389 12.5445 29.8254 11.5394 29.8276C9.18668 29.8276 1.65275 29.2103 3.46353 21.3628L4.00857 18.8401L5.83798 10.715C5.95496 10.7196 6.0716 10.7245 6.19264 10.7245C6.57834 10.7237 6.96362 10.7008 7.34625 10.6559C7.52619 10.6352 7.70613 10.6161 7.88588 10.5968C8.44277 10.537 9.01856 10.4751 9.61309 10.3685ZM9.47079 5.11845C8.76989 5.22462 7.91742 5.34043 7.03416 5.4023L7.49789 3.34275C7.94709 1.39605 9.378 0.150593 11.4666 0.150593H14.2755L13.1235 4.97627C12.731 4.93881 12.3366 4.92016 11.942 4.92038C11.1138 4.92473 10.2874 4.99097 9.47079 5.11845Z" fill="url(#paint1_linear_564_1852)"/>
<path d="M18.7448 9.8762C18.6636 9.51417 17.5204 4.60339 9.59229 5.805C6.20831 6.31789 1.87053 6.66635 0.30364 3.59375L0 5.14299L0.0766766 5.4504C0.426687 6.80851 2.12122 10.5586 7.2533 9.96557C7.98818 9.88069 8.72018 9.8201 9.45927 9.68734C11.5206 9.28885 13.6835 9.20134 15.435 9.67223C16.6271 9.959 17.6569 10.654 18.3161 11.6166L18.7448 9.8762Z" fill="url(#paint2_linear_564_1852)"/>
</g>
<defs>
<linearGradient id="paint0_linear_564_1852" x1="89.655" y1="2.50811" x2="149.092" y2="39.5996" gradientUnits="userSpaceOnUse">
<stop stop-color="#EDAF3E"/>
<stop offset="0.18056" stop-color="#EEB441"/>
<stop offset="0.39531" stop-color="#F1C24A"/>
<stop offset="0.48744" stop-color="#F3CB4F"/>
<stop offset="0.60285" stop-color="#F1C048"/>
<stop offset="0.78779" stop-color="#EFB540"/>
<stop offset="1" stop-color="#EEB23E"/>
</linearGradient>
<linearGradient id="paint1_linear_564_1852" x1="5.15862" y1="-4.62576" x2="70.1277" y2="35.9178" gradientUnits="userSpaceOnUse">
<stop stop-color="#409EB2"/>
<stop offset="0.18679" stop-color="#42A3B1"/>
<stop offset="0.41988" stop-color="#48B3B0"/>
<stop offset="0.50251" stop-color="#4BBAAF"/>
<stop offset="0.5912" stop-color="#47B2B0"/>
<stop offset="0.80303" stop-color="#3FA5B1"/>
<stop offset="1" stop-color="#3DA1B2"/>
</linearGradient>
<linearGradient id="paint2_linear_564_1852" x1="0.667906" y1="8.91498" x2="18.0303" y2="5.84064" gradientUnits="userSpaceOnUse">
<stop stop-color="#EDAF3E"/>
<stop offset="0.16381" stop-color="#EEB441"/>
<stop offset="0.35863" stop-color="#F1C24A"/>
<stop offset="0.44221" stop-color="#F3CB4F"/>
<stop offset="0.56781" stop-color="#F1C048"/>
<stop offset="0.76907" stop-color="#EFB540"/>
<stop offset="1" stop-color="#EEB23E"/>
</linearGradient>
<clipPath id="clip0_564_1852">
<rect width="155" height="41" fill="white"/>
</clipPath>
</defs>
</svg>
